<?xml version="1.0" standalone="no"?>
<!DOCTYPE svg PUBLIC "-//W3C//DTD SVG 20010904//EN"
 "http://www.w3.org/TR/2001/REC-SVG-20010904/DTD/svg10.dtd">
<svg version="1.0" xmlns="http://www.w3.org/2000/svg"
 width="512.000000pt" height="512.000000pt" viewBox="0 0 512.000000 512.000000"
 preserveAspectRatio="xMidYMid meet">
<metadata>
Created by potrace 1.15, written by Peter Selinger 2001-2017
</metadata>
<g transform="translate(0.000000,512.000000) scale(0.100000,-0.100000)"
fill="#000000" stroke="none">
<path d="M4170 4489 c-82 -33 -130 -105 -130 -196 0 -85 7 -90 68 -49 89 59
191 58 276 -5 22 -16 43 -29 47 -29 12 0 22 86 15 123 -22 117 -167 199 -276
156z"/>
<path d="M2545 3922 c-61 -5 -175 -26 -175 -33 0 -3 12 -4 28 -1 21 3 24 2 16
-8 -6 -6 -30 -14 -53 -17 -22 -3 -38 -10 -35 -15 3 -5 -5 -6 -19 -3 -16 4 -30
1 -42 -12 -18 -17 -18 -18 9 -21 15 -2 34 2 43 9 13 11 17 10 28 -5 8 -10 19
-15 24 -11 6 3 22 8 35 11 27 5 44 -21 20 -30 -9 -3 -12 -10 -9 -16 3 -5 1
-10 -4 -10 -6 0 -11 5 -11 10 0 6 -13 4 -30 -5 -17 -9 -36 -15 -43 -14 -12 3
-72 -12 -144 -36 -24 -8 -58 -11 -78 -8 -28 4 -43 1 -65 -16 -16 -11 -34 -21
-40 -21 -5 0 -10 -5 -10 -11 0 -5 -5 -7 -12 -3 -7 4 -8 3 -4 -5 4 -6 12 -9 17
-6 5 4 9 0 9 -7 0 -10 2 -10 8 -1 10 17 84 21 90 5 2 -7 11 -12 20 -12 14 -1
12 -5 -7 -20 -12 -11 -27 -18 -31 -15 -10 6 -121 -22 -129 -32 -14 -18 -49
-31 -62 -22 -11 6 -6 11 19 20 33 11 64 49 40 49 -9 0 -9 3 0 12 17 17 15 38
-3 38 -9 0 -15 9 -15 21 0 13 5 19 13 16 7 -3 24 1 38 9 l24 14 -30 -6 c-16
-3 -45 -10 -64 -15 -33 -8 -33 -8 -15 10 11 10 21 17 23 15 2 -2 20 8 40 21
19 14 43 25 53 25 22 0 68 21 68 31 0 12 68 42 82 36 7 -3 3 -6 -8 -6 -27 -1
-41 -31 -15 -31 10 0 24 6 30 14 13 15 58 31 79 27 8 -1 12 5 10 16 -2 10 -12
18 -23 17 -38 -1 -132 -35 -153 -54 -12 -11 -26 -20 -32 -20 -20 0 -124 -53
-190 -97 -113 -75 -145 -110 -65 -71 24 12 47 19 50 17 11 -12 -17 -67 -40
-79 -16 -8 -25 -22 -25 -37 0 -14 -6 -23 -15 -23 -8 0 -15 -4 -15 -9 0 -5 -15
-15 -32 -22 -38 -15 -89 -48 -114 -74 -13 -12 -19 -14 -22 -6 -5 15 -91 -125
-128 -207 -14 -31 -29 -65 -35 -74 -12 -22 -11 -28 1 -28 6 0 10 6 10 14 0 8
11 17 24 20 17 4 26 14 28 33 2 19 14 32 41 46 20 10 37 23 37 27 0 5 21 20
48 34 l47 26 -64 -60 c-35 -33 -66 -58 -69 -56 -10 10 -34 -26 -34 -50 0 -22
-4 -25 -24 -21 -13 2 -21 0 -18 -4 3 -5 -7 -29 -21 -54 -15 -24 -24 -49 -20
-55 3 -5 0 -10 -7 -10 -9 0 -9 -3 2 -10 10 -7 11 -10 2 -10 -7 0 -17 -12 -24
-27 -12 -31 -17 -282 -5 -290 4 -2 7 -11 7 -19 0 -9 -5 -12 -12 -8 -8 5 -9 2
-4 -12 5 -10 11 -27 13 -37 5 -15 9 -12 26 15 18 30 21 31 27 13 9 -25 2 -35
-10 -15 -13 21 -12 3 1 -22 9 -16 8 -23 -2 -29 -11 -7 -7 -15 18 -38 18 -15
29 -32 25 -36 -4 -5 -1 -5 6 -1 9 5 11 19 8 39 -5 27 -5 29 4 10 9 -23 30 -32
30 -13 0 5 -5 21 -12 35 -8 18 -17 24 -30 19 -20 -6 -25 10 -7 22 8 5 6 10 -5
16 -29 17 -17 29 14 13 29 -15 30 -15 30 6 0 17 3 19 13 10 8 -6 16 -8 19 -6
3 3 5 -5 5 -17 1 -48 3 -59 13 -53 6 3 10 0 10 -7 1 -8 5 -7 14 5 12 16 13 9
10 -50 -3 -37 -4 -86 -4 -108 1 -46 16 -68 30 -45 8 13 10 12 10 -2 0 -25 8
-22 36 11 30 36 82 61 128 61 81 0 184 -61 235 -139 12 -20 20 -28 17 -18 -3
10 -6 25 -6 33 0 9 -4 13 -9 10 -5 -3 -12 1 -15 10 -10 25 -7 36 7 24 6 -6 20
-16 29 -23 20 -14 60 -134 48 -142 -10 -6 -1 -43 13 -52 6 -4 7 -1 2 7 -6 10
-4 12 9 7 10 -4 22 -7 27 -7 5 0 7 -11 3 -24 -4 -18 1 -28 24 -45 17 -11 39
-21 50 -21 12 0 24 -5 27 -10 5 -8 11 -8 19 0 7 5 25 11 41 12 24 2 25 4 10
13 -10 5 -30 20 -44 33 l-26 23 33 -6 c40 -8 44 15 7 39 -14 9 -23 21 -20 26
8 14 -18 13 -32 -1 -8 -8 -15 -4 -27 12 -11 16 -16 19 -17 9 0 -8 -7 1 -14 20
-7 19 -14 30 -14 23 -2 -24 20 -66 45 -85 14 -12 23 -27 20 -34 -3 -8 4 -24
15 -35 24 -24 19 -35 -9 -20 -12 6 -29 11 -40 11 -28 0 -50 29 -32 40 11 7 6
13 -18 27 -32 18 -41 37 -22 48 5 3 7 12 4 20 -3 8 7 27 24 43 19 19 27 34 22
42 -5 7 -6 19 -3 27 4 11 8 10 19 -4 13 -17 13 -17 14 0 0 20 16 23 24 5 8
-18 0 42 -9 67 -5 14 -4 16 3 6 7 -10 13 -8 26 10 8 13 28 24 43 26 l28 2 -30
-14 c-16 -8 -25 -15 -20 -15 6 -1 21 -3 35 -6 19 -3 21 -2 10 6 -18 12 0 13
19 1 7 -5 10 -14 7 -20 -5 -7 2 -11 18 -11 14 0 26 -5 26 -11 0 -14 47 -3 66
16 8 7 14 22 14 32 0 15 -2 16 -10 3 -8 -11 -9 -8 -4 12 5 21 2 27 -17 33 -13
4 -29 14 -37 21 -7 8 -18 12 -23 8 -5 -3 -8 -1 -7 6 2 6 -8 16 -22 24 -41 21
-93 44 -120 52 -14 4 -35 15 -48 25 -13 10 -31 15 -40 12 -15 -4 -15 -3 -2 6
10 7 11 11 3 11 -7 0 -13 5 -13 10 0 7 8 6 23 -2 36 -20 45 -18 57 13 7 16 17
29 22 29 5 0 6 -4 3 -10 -3 -5 -1 -10 4 -10 6 0 11 3 11 8 0 12 -38 41 -44 35
-3 -4 -6 3 -6 15 0 13 -6 22 -15 22 -8 0 -15 5 -15 10 0 18 17 10 66 -30 27
-22 52 -40 57 -40 4 0 5 -4 2 -10 -3 -6 1 -7 9 -4 9 3 13 10 10 16 -4 6 1 6
12 -1 11 -5 27 -12 37 -15 29 -9 20 -27 -10 -20 -24 6 -26 5 -16 -7 6 -8 27
-16 45 -17 18 -2 42 -9 53 -16 32 -21 94 -29 100 -14 7 17 57 18 62 1 3 -7 24
-10 61 -7 31 2 51 1 45 -2 -7 -3 -13 -17 -13 -30 0 -18 5 -24 21 -24 23 0 56
-16 77 -37 10 -9 18 -10 26 -4 8 7 12 4 13 -10 2 -23 -25 -38 -36 -20 -5 7
-14 -3 -25 -25 l-17 -37 33 6 33 6 -34 -15 c-18 -8 -41 -12 -50 -9 -8 3 -12 3
-8 -1 4 -4 2 -14 -5 -21 -17 -21 11 -37 32 -19 12 11 18 10 30 -4 21 -23 24
-42 8 -51 -21 -14 -38 -10 -32 6 5 11 -1 15 -19 15 -13 0 -37 10 -53 22 -16
12 -26 18 -22 14 10 -12 -17 -36 -40 -36 -11 0 -25 -7 -32 -15 -7 -8 -26 -15
-42 -15 -19 0 -27 -4 -22 -11 5 -9 -6 -10 -39 -7 -25 3 -51 2 -59 -3 -14 -10
21 -14 81 -10 24 2 31 -1 26 -9 -6 -9 3 -11 33 -8 38 3 40 2 25 -14 -9 -10
-20 -15 -24 -12 -5 3 -9 0 -9 -5 0 -6 7 -11 15 -11 8 0 15 4 15 8 0 17 41 5
56 -16 13 -20 13 -21 -1 -16 -21 9 -20 -22 3 -35 15 -9 15 -12 2 -21 -19 -12
-37 -13 -44 -1 -4 5 3 7 14 4 16 -4 19 -2 14 11 -3 9 -11 13 -17 9 -6 -4 -7
-1 -2 7 6 10 4 12 -8 7 -8 -3 -32 -9 -52 -13 -27 -5 -34 -10 -30 -23 3 -9 -2
-26 -11 -37 -8 -10 -13 -14 -10 -7 4 6 2 14 -4 18 -6 4 -7 11 -4 17 4 6 -7 3
-25 -8 -34 -20 -40 -40 -13 -47 16 -4 16 -5 0 -6 -10 0 -18 -6 -18 -12 0 -8
-5 -8 -15 1 -12 10 -15 10 -15 -4 0 -9 -8 -16 -17 -16 -15 0 -15 -2 -3 -14 27
-26 54 -22 88 13 18 19 42 35 53 36 11 1 29 15 40 31 13 21 19 24 19 12 0 -10
-4 -18 -10 -18 -5 0 -10 -4 -10 -10 0 -16 18 -12 40 10 22 22 35 26 24 8 -5
-9 -2 -9 9 1 9 7 17 10 17 5 0 -5 7 0 15 10 8 11 15 16 15 11 0 -5 7 0 16 11
10 12 14 14 11 4 -2 -8 -21 -26 -42 -40 -34 -23 -36 -25 -16 -28 22 -3 22 -4
5 -23 -14 -16 -15 -22 -4 -32 10 -10 12 -9 7 6 -6 15 -3 17 12 12 11 -3 22 -1
26 5 4 6 24 18 46 27 22 8 44 24 50 34 6 12 21 19 38 19 24 0 28 -3 24 -20 -4
-14 0 -20 10 -20 8 0 17 -6 20 -12 4 -10 7 -10 18 0 7 6 20 12 29 12 9 0 5 -5
-10 -13 -44 -23 -59 -27 -54 -14 3 8 -7 14 -27 15 -25 2 -38 -6 -70 -39 -22
-23 -49 -42 -61 -43 -36 -2 -31 -22 7 -23 19 -1 35 3 35 9 0 5 5 6 10 3 6 -3
10 0 10 8 0 22 51 42 100 38 10 -1 8 -6 -8 -17 -12 -8 -27 -12 -32 -9 -13 8
-42 -14 -34 -26 3 -5 9 -7 14 -4 5 3 14 -3 19 -14 8 -14 8 -21 -2 -24 -12 -5
17 -11 40 -8 8 1 10 -5 7 -14 -3 -8 -1 -15 4 -15 16 0 24 18 12 25 -6 4 -8 10
-5 15 3 5 -4 7 -15 5 -12 -2 -20 1 -20 10 0 15 23 11 49 -9 12 -9 13 -8 6 3
-6 11 -2 13 21 7 l29 -6 -25 15 c-14 8 -19 14 -12 15 6 0 12 10 12 22 0 20 1
20 18 5 10 -10 24 -17 31 -17 8 0 10 -7 5 -22 -4 -13 -7 -29 -7 -35 0 -7 -5
-13 -10 -13 -6 0 -8 -3 -5 -6 7 -6 49 16 60 31 5 6 8 5 8 -3 0 -8 9 -12 23
-10 13 2 21 10 19 18 -1 10 3 9 13 -4 8 -11 25 -20 37 -21 22 -2 40 -35 19
-35 -5 0 -17 -7 -26 -16 -13 -13 -14 -19 -4 -25 10 -6 2 -19 -29 -48 -24 -23
-48 -41 -55 -41 -7 0 -6 4 3 10 12 8 13 10 1 10 -8 0 -23 -8 -33 -17 -20 -18
-72 -39 -128 -53 -19 -5 -57 -16 -85 -25 -67 -22 -125 -28 -155 -17 -18 7 -36
4 -67 -10 -36 -16 -51 -17 -104 -9 -34 6 -64 10 -68 9 -3 0 -8 1 -11 2 -3 1
-36 3 -75 5 l-70 4 40 -15 c131 -49 418 -56 615 -14 387 82 712 378 850 777
115 331 59 752 -140 1057 -61 93 -195 227 -293 294 -43 28 -80 52 -82 52 -2 0
-27 14 -55 30 -60 35 -225 95 -325 117 -63 14 -223 22 -300 15z m-143 -535 c4
-6 2 -19 -3 -28 -13 -24 -12 -49 1 -29 5 8 10 11 11 5 1 -5 3 -14 4 -20 2 -5
3 -17 4 -25 1 -13 2 -13 11 0 6 9 10 10 10 3 0 -6 -4 -15 -10 -18 -17 -10 -11
-25 8 -19 14 5 14 3 -2 -10 -11 -9 -24 -16 -29 -16 -4 0 -5 -4 -2 -10 3 -5 -4
-11 -17 -11 -17 -1 -18 -3 -5 -6 23 -6 22 -10 -13 -45 -37 -36 -39 -58 -5 -58
16 0 25 -6 25 -16 0 -8 -4 -13 -9 -10 -5 3 -11 -1 -15 -9 -6 -17 19 -21 29 -5
3 5 11 8 18 6 7 -1 8 -1 4 2 -5 2 0 13 9 24 10 10 18 31 19 46 0 21 5 26 19
24 11 -2 16 1 14 10 -6 15 -39 11 -51 -5 -5 -8 -7 -4 -5 8 2 12 19 28 46 40
23 11 42 23 42 28 0 5 -7 6 -15 3 -20 -8 -42 -14 -33 -9 5 3 3 13 -2 23 -12
22 11 50 41 50 14 0 19 7 19 25 0 14 4 25 10 25 5 0 6 -7 3 -17 -4 -9 -2 -14
3 -11 5 4 10 -9 11 -27 2 -19 -2 -37 -7 -40 -17 -10 -11 -35 8 -35 14 0 15 2
2 10 -12 8 -12 10 -1 10 8 0 11 3 8 7 -4 3 -2 12 4 20 8 9 8 17 0 26 -11 14
-5 27 13 27 6 0 5 -4 -2 -9 -10 -6 -10 -10 2 -20 11 -10 13 -19 5 -38 -5 -14
-7 -28 -4 -31 3 -3 5 0 5 6 0 21 16 13 31 -14 7 -15 23 -30 34 -35 17 -6 17
-8 3 -8 -10 -1 -18 -8 -18 -16 0 -14 12 -20 34 -16 5 1 6 -5 3 -14 -4 -9 -1
-15 7 -15 8 0 22 -3 31 -7 16 -6 16 -4 0 21 -16 23 -16 26 -1 20 9 -3 13 -10
10 -15 -3 -5 0 -9 5 -9 6 0 11 4 11 10 0 5 6 7 14 4 8 -3 13 -13 11 -22 -2 -9
-4 -20 -4 -24 -1 -3 -11 -4 -22 -1 -19 5 -20 4 -10 -16 15 -28 4 -27 -23 2
-29 31 -64 40 -69 18 -3 -11 -6 -7 -11 12 -5 15 -13 27 -20 27 -6 0 -5 4 3 9
7 5 10 14 6 21 -6 9 -9 9 -16 -1 -6 -10 -9 -8 -9 9 0 26 -15 29 -25 5 -7 -17
-9 -26 -13 -64 -2 -18 -39 -32 -47 -19 -3 5 5 18 17 29 26 25 4 30 -28 6 -18
-13 -18 -15 -2 -45 10 -17 14 -28 9 -25 -5 3 -13 -5 -16 -17 -4 -13 -17 -31
-29 -41 -15 -13 -17 -20 -8 -24 13 -5 7 -23 -9 -23 -6 0 -7 5 -4 10 3 6 1 10
-5 10 -6 0 -13 -6 -16 -14 -3 -8 -18 -20 -34 -26 -25 -10 -32 -9 -45 4 -18 17
-30 21 -21 7 3 -5 -1 -14 -8 -21 -12 -9 -17 -7 -25 9 -16 28 -14 36 6 20 15
-13 16 -11 9 16 -9 37 -31 52 -68 46 -4 0 -13 9 -19 20 -11 21 -10 21 12 5 24
-17 54 -22 45 -8 -3 5 4 15 15 22 22 16 26 35 6 27 -10 -4 -13 2 -9 21 3 16 1
23 -4 19 -9 -9 -10 -13 -13 -43 -1 -13 -4 -14 -15 -5 -8 7 -12 21 -8 33 4 18
2 20 -22 16 -14 -3 -29 -2 -31 2 -3 4 11 10 29 12 19 2 32 0 30 -4 -9 -15 13
-8 27 8 10 13 10 17 0 24 -8 4 -10 13 -7 19 11 17 -25 27 -38 10 -15 -20 -62
-21 -120 -4 -48 14 -50 14 -65 -8 -9 -12 -15 -25 -14 -28 1 -4 -6 -5 -17 -2
-11 3 -18 8 -16 12 7 11 -48 8 -56 -3 -13 -19 -23 4 -10 24 10 16 9 18 -3 14
-9 -4 -15 0 -15 7 0 12 -2 12 -9 1 -4 -8 -19 -12 -32 -10 -19 2 -24 9 -25 33
0 17 1 36 4 43 6 17 37 15 52 -3 11 -13 15 -12 31 6 11 12 19 16 19 9 0 -8 8
-10 26 -6 17 5 23 3 19 -4 -3 -5 2 -10 12 -10 15 0 14 -2 -5 -16 -42 -29 -8
-40 60 -18 17 5 20 3 15 -10 -4 -9 -2 -16 2 -16 5 0 11 5 13 11 3 9 10 9 27
-1 15 -8 21 -8 17 -1 -7 11 48 29 69 22 49 -16 65 -19 60 -10 -4 5 1 9 9 9 18
0 22 -35 6 -45 -6 -4 -8 -11 -4 -16 4 -6 11 -6 19 1 8 7 20 8 27 4 10 -6 9 -3
-1 9 -7 9 -9 17 -3 17 14 0 22 -24 15 -49 -6 -25 2 -27 23 -6 13 12 13 19 0
50 -9 20 -11 33 -6 30 6 -3 10 -4 10 -1 0 2 3 12 7 22 4 11 3 15 -5 10 -6 -3
-15 2 -21 11 -9 16 -10 16 -11 2 0 -9 -7 -19 -15 -23 -14 -5 -14 -2 0 24 8 16
15 35 15 41 0 7 8 21 17 31 16 18 16 18 0 12 -12 -4 -17 -1 -17 10 0 9 7 16
15 16 8 0 15 5 15 11 0 13 42 1 52 -14z m878 -737 c8 -5 11 -10 7 -10 -5 0 10
-19 34 -42 23 -23 53 -67 66 -97 14 -31 34 -73 44 -94 11 -20 20 -47 19 -60
-5 -51 1 -87 16 -101 8 -9 12 -16 8 -16 -3 0 0 -8 7 -17 12 -16 12 -17 -2 -6
-9 7 -20 9 -24 5 -5 -4 -5 1 -2 11 6 15 2 18 -16 15 -12 -2 -22 -10 -22 -18 0
-8 5 -14 12 -13 12 3 10 -27 -3 -48 -9 -14 -68 -39 -94 -39 -12 0 -20 7 -20
18 0 9 -9 23 -20 30 -11 7 -20 20 -20 31 0 14 -7 17 -32 16 -51 -3 -78 -15
-78 -34 0 -26 -10 -32 -32 -17 -11 8 -27 12 -36 9 -15 -3 -19 7 -27 61 -6 35
-9 63 -7 61 2 -2 14 8 26 21 20 25 23 25 64 12 48 -15 51 -19 20 -33 -12 -6
-23 -16 -26 -22 -5 -18 52 -17 88 2 17 9 30 11 30 6 0 -6 6 -8 14 -5 7 3 16
-2 19 -10 4 -10 13 -13 23 -9 11 4 15 2 12 -7 -2 -8 2 -22 11 -32 20 -24 39
-7 39 36 0 19 5 43 11 54 18 35 12 104 -14 160 -14 30 -25 59 -25 65 0 6 -27
37 -60 69 -41 39 -55 58 -43 58 10 0 25 -5 33 -10z m-1491 -11 c9 13 41 4 41
-11 0 -6 11 -7 25 -4 14 4 25 3 25 -2 0 -4 8 -8 18 -9 65 -2 102 -8 102 -15 0
-4 -8 -8 -17 -8 -16 0 -16 -2 -3 -11 11 -7 3 -8 -28 -4 -42 7 -43 6 -33 -13
10 -19 8 -21 -31 -24 l-43 -4 28 -12 c28 -12 30 -36 2 -25 -11 4 -14 0 -9 -13
4 -11 4 -16 0 -12 -4 3 -9 13 -10 22 -2 14 -16 26 -109 98 -21 16 -25 23 -15
29 10 7 10 9 1 9 -7 0 -13 4 -13 9 0 6 12 6 31 -1 23 -8 33 -8 38 1z"/>
<path d="M4833 2697 c-12 -17 -539 -548 -1170 -1178 -927 -925 -1158 -1151
-1198 -1170 -41 -19 -66 -24 -140 -24 -157 0 -142 -12 -653 498 -244 243 -650
652 -903 908 l-459 466 -6 -33 c-9 -48 2 -110 31 -172 21 -46 162 -191 917
-947 854 -855 895 -894 951 -914 37 -13 82 -21 125 -21 137 0 56 -73 1338
1211 894 896 1156 1164 1173 1201 18 38 21 61 19 127 l-3 81 -22 -33z"/>
<path d="M1720 2356 c0 -7 -7 -19 -15 -26 -17 -14 -21 0 -4 17 9 9 6 10 -10 6
-21 -5 -52 -42 -64 -76 -7 -19 20 -97 33 -97 18 0 20 35 4 47 -10 7 -12 13 -6
13 7 0 11 6 10 13 -2 6 5 11 15 11 9 -1 17 4 17 12 0 8 3 14 8 14 4 0 8 -32
10 -72 4 -104 44 -174 92 -161 10 3 21 0 24 -6 4 -6 12 -11 19 -11 6 0 -3 15
-19 33 -17 17 -36 40 -44 51 -15 20 -22 89 -8 80 4 -3 13 -2 20 2 8 5 6 10 -8
16 -18 8 -18 8 1 5 13 -1 20 -10 20 -25 0 -13 11 -30 26 -40 14 -9 24 -23 22
-29 -4 -12 0 -15 30 -17 33 -3 61 -108 31 -120 -7 -3 -16 -1 -19 4 -7 12 -45
33 -45 25 0 -13 73 -84 82 -79 5 3 2 14 -8 25 -9 10 -12 19 -7 19 15 0 36 -28
29 -39 -4 -5 4 -17 16 -25 28 -20 49 -21 22 -1 -10 8 -15 15 -10 15 5 0 2 8
-5 17 -10 12 -4 11 24 -6 20 -12 37 -18 37 -13 0 6 -6 13 -12 15 -10 4 -10 6
0 6 7 1 22 -4 33 -9 15 -9 19 -7 19 6 0 16 1 16 19 0 10 -9 25 -14 35 -10 24
9 19 24 -8 24 -23 0 -56 23 -56 38 0 4 -14 15 -30 24 -17 9 -35 30 -41 45 -6
15 -13 23 -16 16 -2 -7 0 -21 6 -32 24 -44 9 -32 -24 19 -40 63 -44 85 -16 77
14 -3 18 -1 14 9 -3 8 1 14 11 14 9 0 16 8 16 18 0 24 -37 82 -53 82 -8 0 -19
11 -27 24 -13 25 -18 28 -100 52 -59 17 -90 17 -90 0z"/>
<path d="M1642 2151 c-7 -4 -12 -12 -11 -17 5 -29 -2 -35 -31 -29 -16 4 -30 4
-30 1 0 -10 51 -56 63 -56 7 0 21 -14 32 -31 19 -30 32 -37 85 -54 23 -7 24
-7 10 11 -13 16 -11 15 15 -3 17 -11 40 -23 51 -27 12 -4 25 -17 28 -29 l7
-22 9 23 c8 18 5 28 -10 44 -11 12 -22 30 -26 40 -3 10 -9 16 -13 14 -4 -3
-20 2 -35 10 -35 18 -60 19 -50 2 11 -19 -1 -7 -35 36 -18 23 -31 50 -31 67 0
30 -6 34 -28 20z"/>
</g>
</svg>
